# xmcd
# 
# Track frame offsets:
#     150
#     14789
#     49679
#     69147
#     88274
#     106969
# 
# Disc length: 1821
# 
# Revision: 1
# Processed by: cddbd v1.5.2PL0 Copyright (c) Steve Scherf et al.
# Submitted via: fre:ac v1.0.17
# 
DISCID=49071b06
DTITLE=Angelo Branduardi - Così è se mi pare
DYEAR=2011
DGENRE=Pop
TTITLE0=Gira la testa (La veglia di San Gemolo)
TTITLE1=Barbriallen
TTITLE2=Il lungo addio
TTITLE3=Una vigile stella
TTITLE4=Favola di Natale a New York
TTITLE5=La ballata del tempo e dello spazio
EXTD=
EXTT0=
EXTT1=
EXTT2=
EXTT3=
EXTT4=
EXTT5=
PLAYORDER=
